<svg xmlns="http://www.w3.org/2000/svg" width="30" height="30" viewBox="0 0 30 30"><defs><style>.a{fill:#585858;}.b{fill:#fff;}.c,.e{fill:none;}.c{stroke:#707070;stroke-width:0.5px;}.d{stroke:none;}</style></defs><g transform="translate(-11101 18852)"><rect class="a" width="30" height="30" transform="translate(11101 -18852)"/><rect class="b" width="6" height="6" transform="translate(11101 -18852)"/><rect class="b" width="6" height="6" transform="translate(11107 -18846)"/><rect class="b" width="6" height="6" transform="translate(11101 -18840)"/><rect class="b" width="6" height="6" transform="translate(11113 -18852)"/><rect class="b" width="6" height="6" transform="translate(11119 -18846)"/><rect class="b" width="5" height="6" transform="translate(11126 -18852)"/><rect class="b" width="6" height="6" transform="translate(11113 -18840)"/><rect class="b" width="6" height="6" transform="translate(11125 -18840)"/><rect class="b" width="6" height="6" transform="translate(11107 -18834)"/><rect class="b" width="6" height="6" transform="translate(11113 -18828)"/><rect class="b" width="6" height="6" transform="translate(11101 -18828)"/><rect class="b" width="6" height="6" transform="translate(11119 -18834)"/><rect class="b" width="6" height="6" transform="translate(11125 -18828)"/><g class="c" transform="translate(11101 -18852)"><rect class="d" width="30" height="30"/><rect class="e" x="0.25" y="0.25" width="29.5" height="29.5"/></g></g></svg>