<svg xmlns="http://www.w3.org/2000/svg" width="39.117" height="39.117" viewBox="0 0 39.117 39.117"><defs><style>.a{fill:#585858;}</style></defs><path class="a" d="M12.735,33.294a3.912,3.912,0,1,0,3.912,3.912A3.907,3.907,0,0,0,12.735,33.294ZM1,2V5.912H4.912l7.041,14.845-2.64,4.792a3.782,3.782,0,0,0-.489,1.878,3.923,3.923,0,0,0,3.912,3.912h23.47V27.426H13.557a.484.484,0,0,1-.489-.489l.059-.235,1.76-3.188H29.458A3.893,3.893,0,0,0,32.881,21.5l7-12.694a1.911,1.911,0,0,0,.235-.939,1.962,1.962,0,0,0-1.956-1.956H9.234L7.4,2H1ZM32.294,33.294a3.912,3.912,0,1,0,3.912,3.912A3.907,3.907,0,0,0,32.294,33.294Z" transform="translate(-1 -2)"/></svg>